<?xml version="1.0" encoding="UTF-8" standalone="no"?>
<svg
   xmlns:dc="http://purl.org/dc/elements/1.1/"
   xmlns:cc="http://creativecommons.org/ns#"
   xmlns:rdf="http://www.w3.org/1999/02/22-rdf-syntax-ns#"
   xmlns:svg="http://www.w3.org/2000/svg"
   xmlns="http://www.w3.org/2000/svg"
   xmlns:sodipodi="http://sodipodi.sourceforge.net/DTD/sodipodi-0.dtd"
   xmlns:inkscape="http://www.inkscape.org/namespaces/inkscape"
   id="svg8"
   version="1.1"
   viewBox="0 0 4.4979166 4.4979169"
   height="17"
   width="17"
   sodipodi:docname="moon.svg"
   inkscape:version="0.92.5 (2060ec1f9f, 2020-04-08)">
  <sodipodi:namedview
     pagecolor="#ffffff"
     bordercolor="#666666"
     borderopacity="1"
     objecttolerance="10"
     gridtolerance="10"
     guidetolerance="10"
     inkscape:pageopacity="0"
     inkscape:pageshadow="2"
     inkscape:window-width="1366"
     inkscape:window-height="704"
     id="namedview7"
     showgrid="false"
     inkscape:zoom="9.8333333"
     inkscape:cx="12"
     inkscape:cy="12"
     inkscape:window-x="0"
     inkscape:window-y="27"
     inkscape:window-maximized="1"
     inkscape:current-layer="svg8" />
  <defs
     id="defs2" />
  <metadata
     id="metadata5">
    <rdf:RDF>
      <cc:Work
         rdf:about="">
        <dc:format>image/svg+xml</dc:format>
        <dc:type
           rdf:resource="http://purl.org/dc/dcmitype/StillImage" />
        <dc:title></dc:title>
      </cc:Work>
    </rdf:RDF>
  </metadata>
  <g
     transform="translate(0,-292.50206)"
     id="layer1">
    <path
       id="path815"
       d="m 102.72519,145.34889 a 3.8610926,3.8729192 13.002271 0 0 0.23015,5.19182 3.8610926,3.8729192 13.002271 0 0 5.17404,0.27493 4.5588952,3.8695108 45.695444 0 1 -3.97,-1.46501 4.5588952,3.8695108 45.695444 0 1 -1.43419,-4.00174 z"
       style="stroke:#0f0f0f;stroke-width:0.02645833;stroke-miterlimit:4;stroke-dasharray:none"
       inkscape:connector-curvature="0" />
  </g>
  <path
     style="fill:#ffffff;stroke:#000000;stroke-width:0.13229167;stroke-miterlimit:4;stroke-dasharray:none"
     d="M 2.2298356,0.00962172 A 2.229655,2.2293995 20.166677 0 0 0.27488403,1.3812851 2.229655,2.2293995 20.166677 0 0 1.4816459,4.2943538 2.229655,2.2293995 20.166677 0 0 3.9701968,3.7462129 2.229655,2.2293995 20.166677 0 1 3.0117244,3.5814496 2.229655,2.2293995 20.166677 0 1 1.8049625,0.66838123 2.229655,2.2293995 20.166677 0 1 2.2298356,0.00962172 Z"
     id="path879"
     inkscape:connector-curvature="0" />
</svg>
